# MagicaVoxel @ Ephtracy

# group
o 

# material
mtllib Tile.mtl
usemtl palette

# normals
vn -1 0 0
vn 1 0 0
vn 0 0 1
vn 0 0 -1
vn 0 -1 0
vn 0 1 0

# texcoords
vt 0.306641 0.5
vt 0.537109 0.5
vt 0.716797 0.5

# verts
v -0.5 0 0.5
v -0.5 0 -0.5
v -0.5 0.4 0
v -0.5 0.4 -0.1
v -0.5 0.5 0.3
v -0.5 0.5 0.2
v -0.5 0.5 0
v -0.5 0.5 -0.1
v -0.5 0.5 -0.3
v -0.5 0.6 0.5
v -0.5 0.6 0.3
v -0.5 0.6 0.1
v -0.5 0.6 -0.1
v -0.5 0.6 -0.4
v -0.5 0.6 -0.5
v -0.5 0.7 0.2
v -0.5 0.7 0.1
v -0.5 0.7 -0.3
v -0.5 0.7 -0.4
v -0.5 1 0.5
v -0.5 1 -0.5
v 0.5 0 0.5
v 0.5 0 -0.5
v 0.5 0.4 -0.2
v 0.5 0.4 -0.3
v 0.5 0.5 0.2
v 0.5 0.5 0.1
v 0.5 0.5 -0.3
v 0.5 0.5 -0.4
v 0.5 0.6 0.5
v 0.5 0.6 0.3
v 0.5 0.6 0.1
v 0.5 0.6 -0.2
v 0.5 0.6 -0.4
v 0.5 0.6 -0.5
v 0.5 0.7 0.3
v 0.5 0.7 0.2
v 0.5 1 0.5
v 0.5 1 -0.5
v -0.5 0 0.5
v -0.5 0.6 0.5
v -0.5 1 0.5
v -0.4 0.5 0.5
v -0.4 0.6 0.5
v -0.3 0.5 0.5
v -0.3 0.6 0.5
v -0.2 0.6 0.5
v -0.2 0.7 0.5
v -0.1 0.4 0.5
v -0.1 0.7 0.5
v 0 0.4 0.5
v 0 0.7 0.5
v 0.2 0.5 0.5
v 0.2 0.7 0.5
v 0.3 0.4 0.5
v 0.3 0.5 0.5
v 0.3 0.6 0.5
v 0.4 0.4 0.5
v 0.4 0.5 0.5
v 0.5 0 0.5
v 0.5 0.6 0.5
v 0.5 1 0.5
v -0.5 0 -0.5
v -0.5 0.6 -0.5
v -0.5 1 -0.5
v -0.4 0.5 -0.5
v -0.4 0.6 -0.5
v -0.2 0.5 -0.5
v -0.2 0.7 -0.5
v -0.1 0.4 -0.5
v -0.1 0.5 -0.5
v -0.1 0.6 -0.5
v -0.1 0.7 -0.5
v 0 0.4 -0.5
v 0 0.5 -0.5
v 0.1 0.6 -0.5
v 0.1 0.7 -0.5
v 0.2 0.6 -0.5
v 0.2 0.7 -0.5
v 0.3 0.5 -0.5
v 0.3 0.6 -0.5
v 0.4 0.5 -0.5
v 0.4 0.6 -0.5
v 0.5 0 -0.5
v 0.5 0.6 -0.5
v 0.5 1 -0.5
v -0.5 0 0.5
v 0.5 0 0.5
v -0.5 0 -0.5
v 0.5 0 -0.5
v -0.5 1 0.5
v 0.5 1 0.5
v -0.5 1 -0.5
v 0.5 1 -0.5

# faces
f 3/2/1 2/2/1 1/2/1
f 4/2/1 2/2/1 3/2/1
f 5/2/1 3/2/1 1/2/1
f 6/2/1 3/2/1 5/2/1
f 7/3/1 4/3/1 3/3/1
f 7/2/1 3/2/1 6/2/1
f 8/2/1 2/2/1 4/2/1
f 8/3/1 4/3/1 7/3/1
f 9/2/1 2/2/1 8/2/1
f 10/2/1 5/2/1 1/2/1
f 11/3/1 6/3/1 5/3/1
f 11/2/1 5/2/1 10/2/1
f 12/2/1 7/2/1 6/2/1
f 12/2/1 8/2/1 7/2/1
f 13/3/1 9/3/1 8/3/1
f 13/2/1 8/2/1 12/2/1
f 14/2/1 2/2/1 9/2/1
f 15/2/1 2/2/1 14/2/1
f 16/3/1 6/3/1 11/3/1
f 16/3/1 11/3/1 10/3/1
f 16/2/1 12/2/1 6/2/1
f 17/3/1 13/3/1 12/3/1
f 17/2/1 12/2/1 16/2/1
f 18/3/1 9/3/1 13/3/1
f 18/3/1 13/3/1 17/3/1
f 18/2/1 14/2/1 9/2/1
f 19/3/1 15/3/1 14/3/1
f 19/2/1 14/2/1 18/2/1
f 20/3/1 17/3/1 16/3/1
f 20/3/1 18/3/1 17/3/1
f 20/3/1 19/3/1 18/3/1
f 20/3/1 16/3/1 10/3/1
f 21/3/1 15/3/1 19/3/1
f 21/3/1 19/3/1 20/3/1
f 22/2/2 23/2/2 24/2/2
f 24/2/2 23/2/2 25/2/2
f 22/2/2 24/2/2 26/2/2
f 26/2/2 24/2/2 27/2/2
f 25/2/2 23/2/2 28/2/2
f 24/3/2 25/3/2 28/3/2
f 28/2/2 23/2/2 29/2/2
f 22/2/2 26/2/2 30/2/2
f 30/2/2 26/2/2 31/2/2
f 27/2/2 24/2/2 32/2/2
f 26/3/2 27/3/2 32/3/2
f 24/3/2 28/3/2 33/3/2
f 32/2/2 24/2/2 33/2/2
f 28/3/2 29/3/2 33/3/2
f 29/2/2 23/2/2 34/2/2
f 33/3/2 29/3/2 34/3/2
f 34/2/2 23/2/2 35/2/2
f 31/2/2 26/2/2 36/2/2
f 30/3/2 31/3/2 36/3/2
f 34/3/2 35/3/2 37/3/2
f 36/2/2 26/2/2 37/2/2
f 32/3/2 33/3/2 37/3/2
f 33/3/2 34/3/2 37/3/2
f 26/3/2 32/3/2 37/3/2
f 30/3/2 36/3/2 38/3/2
f 36/3/2 37/3/2 38/3/2
f 37/3/2 35/3/2 39/3/2
f 38/3/2 37/3/2 39/3/2
f 43/2/3 41/2/3 40/2/3
f 44/3/3 42/3/3 41/3/3
f 44/2/3 41/2/3 43/2/3
f 45/2/3 43/2/3 40/2/3
f 45/3/3 44/3/3 43/3/3
f 46/3/3 42/3/3 44/3/3
f 46/3/3 44/3/3 45/3/3
f 47/2/3 46/2/3 45/2/3
f 47/3/3 42/3/3 46/3/3
f 48/3/3 42/3/3 47/3/3
f 49/2/3 45/2/3 40/2/3
f 49/2/3 47/2/3 45/2/3
f 49/2/3 48/2/3 47/2/3
f 50/3/3 42/3/3 48/3/3
f 50/2/3 48/2/3 49/2/3
f 51/2/3 49/2/3 40/2/3
f 51/3/3 50/3/3 49/3/3
f 52/3/3 42/3/3 50/3/3
f 52/3/3 50/3/3 51/3/3
f 53/2/3 52/2/3 51/2/3
f 54/3/3 42/3/3 52/3/3
f 54/2/3 52/2/3 53/2/3
f 55/2/3 51/2/3 40/2/3
f 55/2/3 53/2/3 51/2/3
f 56/3/3 54/3/3 53/3/3
f 56/2/3 53/2/3 55/2/3
f 57/3/3 54/3/3 56/3/3
f 58/2/3 55/2/3 40/2/3
f 58/3/3 56/3/3 55/3/3
f 59/2/3 57/2/3 56/2/3
f 59/3/3 56/3/3 58/3/3
f 60/2/3 58/2/3 40/2/3
f 60/2/3 59/2/3 58/2/3
f 61/3/3 54/3/3 57/3/3
f 61/2/3 59/2/3 60/2/3
f 61/2/3 57/2/3 59/2/3
f 62/3/3 42/3/3 54/3/3
f 62/3/3 54/3/3 61/3/3
f 63/2/4 64/2/4 66/2/4
f 64/3/4 65/3/4 67/3/4
f 66/2/4 64/2/4 67/2/4
f 63/2/4 66/2/4 68/2/4
f 66/3/4 67/3/4 68/3/4
f 67/3/4 65/3/4 69/3/4
f 68/3/4 67/3/4 69/3/4
f 63/2/4 68/2/4 70/2/4
f 68/2/4 69/2/4 70/2/4
f 70/2/4 69/2/4 71/2/4
f 71/2/4 69/2/4 72/2/4
f 69/3/4 65/3/4 73/3/4
f 72/2/4 69/2/4 73/2/4
f 63/2/4 70/2/4 74/2/4
f 70/3/4 71/3/4 74/3/4
f 71/2/4 72/2/4 75/2/4
f 74/3/4 71/3/4 75/3/4
f 72/3/4 73/3/4 76/3/4
f 75/2/4 72/2/4 76/2/4
f 74/2/4 75/2/4 76/2/4
f 73/3/4 65/3/4 77/3/4
f 76/3/4 73/3/4 77/3/4
f 74/2/4 76/2/4 78/2/4
f 76/2/4 77/2/4 78/2/4
f 77/3/4 65/3/4 79/3/4
f 78/2/4 77/2/4 79/2/4
f 74/2/4 78/2/4 80/2/4
f 78/3/4 79/3/4 81/3/4
f 80/2/4 78/2/4 81/2/4
f 74/2/4 80/2/4 82/2/4
f 80/3/4 81/3/4 82/3/4
f 81/3/4 79/3/4 83/3/4
f 82/3/4 81/3/4 83/3/4
f 63/2/4 74/2/4 84/2/4
f 74/2/4 82/2/4 84/2/4
f 82/2/4 83/2/4 84/2/4
f 83/3/4 79/3/4 85/3/4
f 84/2/4 83/2/4 85/2/4
f 79/3/4 65/3/4 86/3/4
f 85/3/4 79/3/4 86/3/4
f 89/2/5 88/2/5 87/2/5
f 90/2/5 88/2/5 89/2/5
f 91/3/6 92/3/6 93/3/6
f 93/3/6 92/3/6 94/3/6
