# MagicaVoxel @ Ephtracy

# group
o 

# material
mtllib Coin.mtl
usemtl palette

# normals
vn -1 0 0
vn 1 0 0
vn 0 0 1
vn 0 0 -1
vn 0 -1 0
vn 0 1 0

# texcoords
vt 0.00976562 0.5
vt 0.0136719 0.5
vt 0.0175781 0.5
vt 0.994141 0.5

# verts
v -0.5 0.2 0
v -0.5 0.2 -0.1
v -0.5 0.8 0
v -0.5 0.8 -0.1
v -0.4 0.1 0
v -0.4 0.1 -0.1
v -0.4 0.2 0
v -0.4 0.2 -0.1
v -0.4 0.8 0
v -0.4 0.8 -0.1
v -0.4 0.9 0
v -0.4 0.9 -0.1
v -0.3 0 0
v -0.3 0 -0.1
v -0.3 0.1 0
v -0.3 0.1 -0.1
v -0.3 0.9 0
v -0.3 0.9 -0.1
v -0.3 1 0
v -0.3 1 -0.1
v 0.3 0 0
v 0.3 0 -0.1
v 0.3 0.1 0
v 0.3 0.1 -0.1
v 0.3 0.9 0
v 0.3 0.9 -0.1
v 0.3 1 0
v 0.3 1 -0.1
v 0.4 0.1 0
v 0.4 0.1 -0.1
v 0.4 0.2 0
v 0.4 0.2 -0.1
v 0.4 0.8 0
v 0.4 0.8 -0.1
v 0.4 0.9 0
v 0.4 0.9 -0.1
v 0.5 0.2 0
v 0.5 0.2 -0.1
v 0.5 0.8 0
v 0.5 0.8 -0.1
v -0.5 0.2 0
v -0.5 0.8 0
v -0.4 0.1 0
v -0.4 0.2 0
v -0.4 0.3 0
v -0.4 0.7 0
v -0.4 0.8 0
v -0.4 0.9 0
v -0.3 0 0
v -0.3 0.1 0
v -0.3 0.2 0
v -0.3 0.3 0
v -0.3 0.7 0
v -0.3 0.8 0
v -0.3 0.9 0
v -0.3 1 0
v -0.2 0.1 0
v -0.2 0.2 0
v -0.2 0.3 0
v -0.2 0.7 0
v -0.2 0.8 0
v -0.2 0.9 0
v 0 0.4 0
v 0 0.5 0
v 0.1 0 0
v 0.1 0.1 0
v 0.1 0.2 0
v 0.1 0.3 0
v 0.1 0.4 0
v 0.1 0.7 0
v 0.1 0.8 0
v 0.1 0.9 0
v 0.1 1 0
v 0.2 0.1 0
v 0.2 0.2 0
v 0.2 0.3 0
v 0.2 0.5 0
v 0.2 0.7 0
v 0.2 0.8 0
v 0.2 0.9 0
v 0.3 0 0
v 0.3 0.1 0
v 0.3 0.2 0
v 0.3 0.3 0
v 0.3 0.7 0
v 0.3 0.8 0
v 0.3 0.9 0
v 0.3 1 0
v 0.4 0.1 0
v 0.4 0.2 0
v 0.4 0.3 0
v 0.4 0.7 0
v 0.4 0.8 0
v 0.4 0.9 0
v 0.5 0.2 0
v 0.5 0.8 0
v -0.5 0.2 -0.1
v -0.5 0.8 -0.1
v -0.4 0.1 -0.1
v -0.4 0.2 -0.1
v -0.4 0.3 -0.1
v -0.4 0.7 -0.1
v -0.4 0.8 -0.1
v -0.4 0.9 -0.1
v -0.3 0 -0.1
v -0.3 0.1 -0.1
v -0.3 0.2 -0.1
v -0.3 0.3 -0.1
v -0.3 0.7 -0.1
v -0.3 0.8 -0.1
v -0.3 0.9 -0.1
v -0.3 1 -0.1
v -0.2 0.1 -0.1
v -0.2 0.2 -0.1
v -0.2 0.3 -0.1
v -0.2 0.7 -0.1
v -0.2 0.8 -0.1
v -0.2 0.9 -0.1
v 0 0.4 -0.1
v 0 0.5 -0.1
v 0.1 0 -0.1
v 0.1 0.1 -0.1
v 0.1 0.2 -0.1
v 0.1 0.3 -0.1
v 0.1 0.4 -0.1
v 0.1 0.7 -0.1
v 0.1 0.8 -0.1
v 0.1 0.9 -0.1
v 0.1 1 -0.1
v 0.2 0.1 -0.1
v 0.2 0.2 -0.1
v 0.2 0.3 -0.1
v 0.2 0.5 -0.1
v 0.2 0.7 -0.1
v 0.2 0.8 -0.1
v 0.2 0.9 -0.1
v 0.3 0 -0.1
v 0.3 0.1 -0.1
v 0.3 0.2 -0.1
v 0.3 0.3 -0.1
v 0.3 0.7 -0.1
v 0.3 0.8 -0.1
v 0.3 0.9 -0.1
v 0.3 1 -0.1
v 0.4 0.1 -0.1
v 0.4 0.2 -0.1
v 0.4 0.3 -0.1
v 0.4 0.7 -0.1
v 0.4 0.8 -0.1
v 0.4 0.9 -0.1
v 0.5 0.2 -0.1
v 0.5 0.8 -0.1
v -0.3 0 0
v 0.1 0 0
v 0.3 0 0
v -0.3 0 -0.1
v 0.1 0 -0.1
v 0.3 0 -0.1
v -0.4 0.1 0
v -0.3 0.1 0
v 0.3 0.1 0
v 0.4 0.1 0
v -0.4 0.1 -0.1
v -0.3 0.1 -0.1
v 0.3 0.1 -0.1
v 0.4 0.1 -0.1
v -0.5 0.2 0
v -0.4 0.2 0
v 0.4 0.2 0
v 0.5 0.2 0
v -0.5 0.2 -0.1
v -0.4 0.2 -0.1
v 0.4 0.2 -0.1
v 0.5 0.2 -0.1
v -0.5 0.8 0
v -0.4 0.8 0
v 0.4 0.8 0
v 0.5 0.8 0
v -0.5 0.8 -0.1
v -0.4 0.8 -0.1
v 0.4 0.8 -0.1
v 0.5 0.8 -0.1
v -0.4 0.9 0
v -0.3 0.9 0
v 0.3 0.9 0
v 0.4 0.9 0
v -0.4 0.9 -0.1
v -0.3 0.9 -0.1
v 0.3 0.9 -0.1
v 0.4 0.9 -0.1
v -0.3 1 0
v 0.1 1 0
v 0.3 1 0
v -0.3 1 -0.1
v 0.1 1 -0.1
v 0.3 1 -0.1

# faces
f 3/3/1 2/3/1 1/3/1
f 4/3/1 2/3/1 3/3/1
f 7/3/1 6/3/1 5/3/1
f 8/3/1 6/3/1 7/3/1
f 11/3/1 10/3/1 9/3/1
f 12/3/1 10/3/1 11/3/1
f 15/3/1 14/3/1 13/3/1
f 16/3/1 14/3/1 15/3/1
f 19/3/1 18/3/1 17/3/1
f 20/3/1 18/3/1 19/3/1
f 21/1/2 22/1/2 23/1/2
f 23/1/2 22/1/2 24/1/2
f 25/1/2 26/1/2 27/1/2
f 27/1/2 26/1/2 28/1/2
f 29/1/2 30/1/2 31/1/2
f 31/1/2 30/1/2 32/1/2
f 33/1/2 34/1/2 35/1/2
f 35/1/2 34/1/2 36/1/2
f 37/1/2 38/1/2 39/1/2
f 39/1/2 38/1/2 40/1/2
f 44/3/3 42/3/3 41/3/3
f 45/3/3 42/3/3 44/3/3
f 46/3/3 42/3/3 45/3/3
f 47/3/3 42/3/3 46/3/3
f 50/3/3 44/3/3 43/3/3
f 50/3/3 45/3/3 44/3/3
f 51/3/3 45/3/3 50/3/3
f 52/2/3 46/2/3 45/2/3
f 52/3/3 45/3/3 51/3/3
f 53/3/3 48/3/3 47/3/3
f 53/2/3 46/2/3 52/2/3
f 53/3/3 47/3/3 46/3/3
f 54/3/3 48/3/3 53/3/3
f 55/3/3 48/3/3 54/3/3
f 57/3/3 50/3/3 49/3/3
f 57/3/3 51/3/3 50/3/3
f 58/2/3 52/2/3 51/2/3
f 58/3/3 51/3/3 57/3/3
f 59/4/3 53/4/3 52/4/3
f 59/2/3 52/2/3 58/2/3
f 60/2/3 54/2/3 53/2/3
f 60/4/3 53/4/3 59/4/3
f 61/3/3 56/3/3 55/3/3
f 61/2/3 54/2/3 60/2/3
f 61/3/3 55/3/3 54/3/3
f 62/3/3 56/3/3 61/3/3
f 63/2/3 60/2/3 59/2/3
f 64/2/3 60/2/3 63/2/3
f 65/3/3 57/3/3 49/3/3
f 66/2/3 58/2/3 57/2/3
f 66/3/3 57/3/3 65/3/3
f 67/4/3 59/4/3 58/4/3
f 67/2/3 58/2/3 66/2/3
f 68/2/3 63/2/3 59/2/3
f 68/4/3 59/4/3 67/4/3
f 69/4/3 64/4/3 63/4/3
f 69/2/3 63/2/3 68/2/3
f 70/2/3 60/2/3 64/2/3
f 70/4/3 61/4/3 60/4/3
f 71/2/3 62/2/3 61/2/3
f 71/4/3 61/4/3 70/4/3
f 72/3/3 56/3/3 62/3/3
f 72/2/3 62/2/3 71/2/3
f 73/3/3 56/3/3 72/3/3
f 74/1/3 66/1/3 65/1/3
f 74/3/3 67/3/3 66/3/3
f 75/2/3 68/2/3 67/2/3
f 75/3/3 67/3/3 74/3/3
f 76/4/3 69/4/3 68/4/3
f 76/2/3 68/2/3 75/2/3
f 77/4/3 64/4/3 69/4/3
f 77/4/3 69/4/3 76/4/3
f 77/2/3 71/2/3 70/2/3
f 77/2/3 70/2/3 64/2/3
f 78/2/3 71/2/3 77/2/3
f 79/3/3 72/3/3 71/3/3
f 79/2/3 71/2/3 78/2/3
f 80/1/3 73/1/3 72/1/3
f 80/3/3 72/3/3 79/3/3
f 81/1/3 75/1/3 74/1/3
f 81/1/3 74/1/3 65/1/3
f 82/1/3 75/1/3 81/1/3
f 83/3/3 76/3/3 75/3/3
f 83/1/3 75/1/3 82/1/3
f 84/2/3 78/2/3 77/2/3
f 84/3/3 76/3/3 83/3/3
f 84/2/3 77/2/3 76/2/3
f 85/3/3 79/3/3 78/3/3
f 85/2/3 78/2/3 84/2/3
f 86/1/3 80/1/3 79/1/3
f 86/3/3 79/3/3 85/3/3
f 87/1/3 73/1/3 80/1/3
f 87/1/3 80/1/3 86/1/3
f 88/1/3 73/1/3 87/1/3
f 89/1/3 83/1/3 82/1/3
f 89/1/3 84/1/3 83/1/3
f 90/1/3 84/1/3 89/1/3
f 91/3/3 85/3/3 84/3/3
f 91/1/3 84/1/3 90/1/3
f 92/1/3 87/1/3 86/1/3
f 92/3/3 85/3/3 91/3/3
f 92/1/3 86/1/3 85/1/3
f 93/1/3 87/1/3 92/1/3
f 94/1/3 87/1/3 93/1/3
f 95/1/3 91/1/3 90/1/3
f 95/1/3 93/1/3 92/1/3
f 95/1/3 92/1/3 91/1/3
f 96/1/3 93/1/3 95/1/3
f 97/3/4 98/3/4 100/3/4
f 100/3/4 98/3/4 101/3/4
f 101/3/4 98/3/4 102/3/4
f 102/3/4 98/3/4 103/3/4
f 99/3/4 100/3/4 106/3/4
f 100/3/4 101/3/4 106/3/4
f 106/3/4 101/3/4 107/3/4
f 101/2/4 102/2/4 108/2/4
f 107/3/4 101/3/4 108/3/4
f 103/3/4 104/3/4 109/3/4
f 108/2/4 102/2/4 109/2/4
f 102/3/4 103/3/4 109/3/4
f 109/3/4 104/3/4 110/3/4
f 110/3/4 104/3/4 111/3/4
f 105/3/4 106/3/4 113/3/4
f 106/3/4 107/3/4 113/3/4
f 107/2/4 108/2/4 114/2/4
f 113/3/4 107/3/4 114/3/4
f 108/4/4 109/4/4 115/4/4
f 114/2/4 108/2/4 115/2/4
f 109/2/4 110/2/4 116/2/4
f 115/4/4 109/4/4 116/4/4
f 111/3/4 112/3/4 117/3/4
f 116/2/4 110/2/4 117/2/4
f 110/3/4 111/3/4 117/3/4
f 117/3/4 112/3/4 118/3/4
f 115/2/4 116/2/4 119/2/4
f 119/2/4 116/2/4 120/2/4
f 105/3/4 113/3/4 121/3/4
f 113/2/4 114/2/4 122/2/4
f 121/3/4 113/3/4 122/3/4
f 114/4/4 115/4/4 123/4/4
f 122/2/4 114/2/4 123/2/4
f 115/2/4 119/2/4 124/2/4
f 123/4/4 115/4/4 124/4/4
f 119/4/4 120/4/4 125/4/4
f 124/2/4 119/2/4 125/2/4
f 120/2/4 116/2/4 126/2/4
f 116/4/4 117/4/4 126/4/4
f 117/2/4 118/2/4 127/2/4
f 126/4/4 117/4/4 127/4/4
f 118/3/4 112/3/4 128/3/4
f 127/2/4 118/2/4 128/2/4
f 128/3/4 112/3/4 129/3/4
f 121/1/4 122/1/4 130/1/4
f 122/3/4 123/3/4 130/3/4
f 123/2/4 124/2/4 131/2/4
f 130/3/4 123/3/4 131/3/4
f 124/4/4 125/4/4 132/4/4
f 131/2/4 124/2/4 132/2/4
f 125/4/4 120/4/4 133/4/4
f 132/4/4 125/4/4 133/4/4
f 126/2/4 127/2/4 133/2/4
f 120/2/4 126/2/4 133/2/4
f 133/2/4 127/2/4 134/2/4
f 127/3/4 128/3/4 135/3/4
f 134/2/4 127/2/4 135/2/4
f 128/1/4 129/1/4 136/1/4
f 135/3/4 128/3/4 136/3/4
f 130/1/4 131/1/4 137/1/4
f 121/1/4 130/1/4 137/1/4
f 137/1/4 131/1/4 138/1/4
f 131/3/4 132/3/4 139/3/4
f 138/1/4 131/1/4 139/1/4
f 133/2/4 134/2/4 140/2/4
f 139/3/4 132/3/4 140/3/4
f 132/2/4 133/2/4 140/2/4
f 134/3/4 135/3/4 141/3/4
f 140/2/4 134/2/4 141/2/4
f 135/1/4 136/1/4 142/1/4
f 141/3/4 135/3/4 142/3/4
f 136/1/4 129/1/4 143/1/4
f 142/1/4 136/1/4 143/1/4
f 143/1/4 129/1/4 144/1/4
f 138/1/4 139/1/4 145/1/4
f 139/1/4 140/1/4 145/1/4
f 145/1/4 140/1/4 146/1/4
f 140/3/4 141/3/4 147/3/4
f 146/1/4 140/1/4 147/1/4
f 142/1/4 143/1/4 148/1/4
f 147/3/4 141/3/4 148/3/4
f 141/1/4 142/1/4 148/1/4
f 148/1/4 143/1/4 149/1/4
f 149/1/4 143/1/4 150/1/4
f 146/1/4 147/1/4 151/1/4
f 148/1/4 149/1/4 151/1/4
f 147/1/4 148/1/4 151/1/4
f 151/1/4 149/1/4 152/1/4
f 156/3/5 154/3/5 153/3/5
f 157/1/5 155/1/5 154/1/5
f 157/3/5 154/3/5 156/3/5
f 158/1/5 155/1/5 157/1/5
f 163/3/5 160/3/5 159/3/5
f 164/3/5 160/3/5 163/3/5
f 165/1/5 162/1/5 161/1/5
f 166/1/5 162/1/5 165/1/5
f 171/3/5 168/3/5 167/3/5
f 172/3/5 168/3/5 171/3/5
f 173/1/5 170/1/5 169/1/5
f 174/1/5 170/1/5 173/1/5
f 175/3/6 176/3/6 179/3/6
f 179/3/6 176/3/6 180/3/6
f 177/1/6 178/1/6 181/1/6
f 181/1/6 178/1/6 182/1/6
f 183/3/6 184/3/6 187/3/6
f 187/3/6 184/3/6 188/3/6
f 185/1/6 186/1/6 189/1/6
f 189/1/6 186/1/6 190/1/6
f 191/3/6 192/3/6 194/3/6
f 192/1/6 193/1/6 195/1/6
f 194/3/6 192/3/6 195/3/6
f 195/1/6 193/1/6 196/1/6
